# xmcd
# 
# Track frame offsets:
#     150
#     752
#     19151
#     36389
#     54022
#     72619
#     89259
#     103804
#     122039
#     141834
#     160269
#     183928
#     209096
#     218102
#     229890
# 
# Disc length: 3747
# 
# Revision: 3
# Processed by: cddbd v1.5.2PL0 Copyright (c) Steve Scherf et al.
# Submitted via: fre:ac v1.0.27
# 
DISCID=d00ea10f
DTITLE=The Road Hammers - The Road Hammers
DYEAR=2005
DGENRE=Country-influenced Rock
TTITLE0=Ignition
TTITLE1=I'm a Road Hammer
TTITLE2=Overdrive
TTITLE3=Keep on Truckin'
TTITLE4=Girl on the Billboard
TTITLE5=Heart with Four Wheel Drive
TTITLE6=East bound and Down
TTITLE7=Call it day
TTITLE8=Nashville Bound
TTITLE9=Willin'
TTITLE10=The Hammer Going Down
TTITLE11=I'm a Road Hammer (Reprise)
TTITLE12=Flat Tires (bloopers, out-takes 'n such)
TTITLE13=Absolutly Nothing
TTITLE14=DATA
EXTD=
EXTT0=
EXTT1=
EXTT2=
EXTT3=
EXTT4=
EXTT5=
EXTT6=
EXTT7=
EXTT8=
EXTT9=
EXTT10=
EXTT11=
EXTT12=
EXTT13=
EXTT14=
PLAYORDER=
